<svg width="43" height="65" viewBox="0 0 43 65" fill="none" xmlns="http://www.w3.org/2000/svg">
<mask id="mask0_94_223" style="mask-type:luminance" maskUnits="userSpaceOnUse" x="12" y="16" width="31" height="32">
<path d="M42.9125 16.0813H12.3269V47.9559H42.9125V16.0813Z" fill="white"/>
</mask>
<g mask="url(#mask0_94_223)">
<path d="M41.5224 16.0811V24.8902H24.2374C24.0288 24.8882 23.8217 24.9214 23.6282 24.9881C23.4347 25.0546 23.2585 25.1533 23.1099 25.2782C22.9891 25.3802 22.8904 25.4997 22.8186 25.6312C22.9793 23.3997 23.971 21.2703 25.6494 19.5526C27.3278 17.8349 29.6052 16.6188 32.1503 16.0811H41.5224Z" fill="url(#paint0_linear_94_223)"/>
<path d="M32.465 38.2979C32.3224 40.5405 31.341 42.6853 29.6647 44.4178C27.9884 46.1502 25.7053 47.3794 23.1501 47.925H14.2081V39.1177H30.997C31.2106 39.1201 31.4226 39.0856 31.6202 39.0163C31.8091 38.9506 31.9806 38.8531 32.1245 38.7297C32.2691 38.6055 32.3847 38.4589 32.465 38.2979Z" fill="url(#paint1_linear_94_223)"/>
<path d="M42.9126 37.7685C42.92 39.127 42.6018 40.4726 41.9775 41.7225C41.8505 41.9742 41.711 42.2221 41.5597 42.4636C41.5554 42.4737 41.5511 42.4774 41.5511 42.4843C41.5497 42.4895 41.5468 42.4944 41.543 42.4986C40.2587 44.5686 38.1786 46.199 35.6516 47.1163C34.1823 47.6564 32.5978 47.9313 30.9979 47.9237H23.1548L23.245 47.903C25.779 47.3437 28.0384 46.1114 29.6962 44.3843C31.354 42.6572 32.324 40.5251 32.4659 38.2966V38.2929C32.6158 37.9603 32.6187 37.5926 32.474 37.2583C32.4702 37.2514 32.4659 37.2408 32.4615 37.2339C32.3836 37.0732 32.2693 36.9271 32.1254 36.8039C31.9779 36.678 31.8018 36.5789 31.608 36.5127C31.4142 36.4466 31.2066 36.4147 30.9979 36.4191H24.2374C23.9012 36.4191 23.565 36.409 23.2326 36.3809C23.2207 36.3809 23.2083 36.3772 23.1921 36.3772C21.9502 36.2933 20.7334 36.0336 19.5918 35.6085C16.7512 34.5658 14.4892 32.6321 13.274 30.2073C13.1139 29.8949 12.9743 29.5752 12.8556 29.2497C12.5009 28.275 12.3226 27.2599 12.327 26.2394C12.3199 24.8778 12.6423 23.5295 13.274 22.2789C14.4963 19.8615 16.7566 17.9342 19.5918 16.892C20.4193 16.5831 21.2883 16.3624 22.1792 16.2349C22.2121 16.2275 22.2365 16.2243 22.2527 16.2206C22.2608 16.2188 22.2692 16.2177 22.2775 16.2174C22.9252 16.125 23.5807 16.0788 24.2374 16.0791H32.1502C29.6051 16.6168 27.3277 17.833 25.6494 19.5506C23.971 21.2683 22.9793 23.3978 22.8186 25.6293C22.8013 25.6552 22.7862 25.6821 22.7737 25.7099C22.6927 25.8772 22.6523 26.0567 22.6548 26.2376C22.6525 26.427 22.6941 26.615 22.7775 26.7906C22.7862 26.8101 22.7972 26.8288 22.8105 26.8464C22.8811 26.9864 22.9828 27.1134 23.1099 27.2206C23.2579 27.3462 23.4339 27.4452 23.6276 27.5119C23.8212 27.5786 24.0286 27.6114 24.2374 27.6086H30.9979C32.5944 27.6014 34.1759 27.8714 35.6461 28.4022C38.5047 29.4268 40.7785 31.3656 41.9802 33.8029C42.139 34.1188 42.2774 34.4418 42.3948 34.7707C42.742 35.7423 42.9165 36.7528 42.9126 37.7685Z" fill="url(#paint2_linear_94_223)"/>
<g style="mix-blend-mode:multiply" opacity="0.16">
<path d="M32.4753 38.2981C32.3328 40.5408 31.3514 42.6855 29.6751 44.418C27.9988 46.1505 25.7157 47.3796 23.1605 47.9252H20.6677C22.7596 47.0859 24.6062 45.8602 26.0739 44.3372C27.5416 42.8142 28.5935 41.0318 29.1534 39.1193H31.0063C31.2199 39.1217 31.4319 39.0872 31.6295 39.0179C31.8185 38.9522 31.99 38.8548 32.1338 38.7313C32.279 38.6068 32.3949 38.4597 32.4753 38.2981Z" fill="black"/>
</g>
<g style="mix-blend-mode:multiply" opacity="0.16">
<path d="M34.3976 16.0811C32.0891 17.5456 27.4031 20.926 26.2221 24.8902H24.2379C24.0293 24.8882 23.8222 24.9214 23.6286 24.9881C23.4351 25.0546 23.259 25.1533 23.1104 25.2782C22.9896 25.3802 22.8909 25.4997 22.8191 25.6312C22.9798 23.3997 23.9715 21.2703 25.6499 19.5526C27.3283 17.8349 29.6057 16.6188 32.1507 16.0811H34.3976Z" fill="black"/>
</g>
<g style="mix-blend-mode:multiply" opacity="0.25">
<path d="M41.5267 18.7168V24.8922H27.0912C28.2922 24.7908 29.4975 24.7212 30.699 24.6719C31.9005 24.6226 33.1058 24.5797 34.3068 24.5636C35.5121 24.5322 36.7136 24.5359 37.9189 24.5253C38.9999 24.5359 40.0712 24.5359 41.15 24.5567C41.1619 24.1548 41.1706 23.7525 41.1905 23.3474C41.2111 22.8331 41.2316 22.3193 41.2689 21.8054C41.3284 20.7759 41.4078 19.7445 41.5267 18.7168Z" fill="black"/>
</g>
<g style="mix-blend-mode:screen" opacity="0.7">
<path d="M42.9161 37.769C42.9235 39.1275 42.6053 40.473 41.981 41.7231C41.854 41.9747 41.7145 42.2226 41.5632 42.4641C41.6043 42.3696 41.7394 42.0686 41.9415 41.6073C42.2547 40.8229 42.4596 40.01 42.5523 39.1852C42.6107 38.6388 42.6232 38.0896 42.5896 37.5417C42.5485 36.9359 42.4498 36.3339 42.2945 35.7417C42.2141 35.4354 42.1141 35.1331 41.9951 34.8361C41.8556 34.5288 41.7162 34.2172 41.5767 33.9061C41.2638 33.2944 40.8792 32.7113 40.4287 32.1655C39.9899 31.6125 39.4825 31.1014 38.9153 30.641C38.369 30.1942 37.7762 29.7907 37.1441 29.4354C36.5446 29.1035 35.9154 28.8124 35.2621 28.5649C34.6737 28.349 34.0665 28.1725 33.446 28.0367C32.5015 27.837 31.5358 27.7188 30.5636 27.6838C29.8501 27.6377 29.4442 27.6105 29.4442 27.6105H30.9981C32.5947 27.6032 34.1762 27.8732 35.6464 28.4041C38.5049 29.4287 40.7788 31.3675 41.9805 33.8047C42.1393 34.1206 42.2776 34.4437 42.395 34.7725C42.7432 35.7435 42.9188 36.7535 42.9161 37.769Z" fill="black"/>
</g>
<g style="mix-blend-mode:multiply" opacity="0.25">
<path d="M21.8587 47.9234H14.2085V41.2642C14.3025 41.8199 14.3598 42.3702 14.4214 42.9283C14.4706 43.4841 14.516 44.0399 14.5447 44.5919C14.5858 45.1477 14.5939 45.704 14.6182 46.2598L14.6349 47.5598C15.1306 47.5667 15.6268 47.5667 16.1229 47.5773C16.7585 47.5985 17.3942 47.6054 18.0336 47.6405C19.3086 47.693 20.5836 47.7732 21.8587 47.9234Z" fill="black"/>
</g>
<g style="mix-blend-mode:screen" opacity="0.7">
<path d="M23.195 36.3777C21.9531 36.2938 20.7364 36.034 19.5947 35.609C16.7541 34.5663 14.4922 32.6326 13.2769 30.2078C13.1169 29.8954 12.9772 29.5757 12.8586 29.2502C12.5038 28.2755 12.3256 27.2604 12.3299 26.2399C12.3228 24.8782 12.6452 23.53 13.2769 22.2794C14.4992 19.862 16.7596 17.9347 19.5947 16.8925C20.4222 16.5836 21.2912 16.3629 22.1821 16.2354C21.7352 16.327 21.2944 16.439 20.8617 16.5708C17.9257 17.4649 15.4967 19.275 14.0644 21.636C13.1172 23.1864 12.6713 24.9239 12.7726 26.6699C12.8044 27.5472 12.9825 28.4162 13.3017 29.2506C13.3958 29.4636 13.4861 29.6769 13.5763 29.8866L13.6417 30.0438L13.6585 30.0825C13.6623 30.089 13.665 30.096 13.6666 30.1032L13.7077 30.1802L13.8633 30.4774C14.0704 30.8622 14.3073 31.2348 14.5725 31.5927C15.0752 32.2741 15.6682 32.9039 16.3399 33.4697C16.9495 33.9761 17.6169 34.4294 18.3321 34.8228C18.9427 35.1531 19.5831 35.4417 20.2471 35.6859C20.7653 35.8738 21.2998 36.027 21.8459 36.144C22.2907 36.2412 22.741 36.3192 23.195 36.3777Z" fill="black"/>
</g>
<g style="mix-blend-mode:screen" opacity="0.7">
<path d="M32.1539 16.0811C29.6088 16.6188 27.3314 17.8349 25.653 19.5526C23.9746 21.2703 22.9829 23.3997 22.8222 25.6312C22.8049 25.6571 22.7899 25.6841 22.7773 25.7119L22.8103 25.6243C22.7979 25.3478 22.7979 25.0685 22.7979 24.7888C22.8222 24.5095 22.859 24.2298 22.8919 23.9464C22.946 23.6698 23.0189 23.3933 23.0806 23.1168C23.1627 22.8403 23.2735 22.5749 23.3676 22.2988C23.4757 22.0297 23.6097 21.7707 23.7405 21.5052C23.88 21.2467 24.0443 20.9983 24.1918 20.743C24.3637 20.4951 24.5523 20.2609 24.7323 20.0162C24.9291 19.7858 25.1339 19.5582 25.3393 19.3342C25.5604 19.1176 25.7944 18.9116 26.0198 18.7014C26.2657 18.506 26.5062 18.3102 26.7619 18.1212L27.5613 17.6005C27.8402 17.4433 28.1228 17.2963 28.4098 17.1461C28.7093 17.0203 29.0006 16.8839 29.2995 16.7613L30.2265 16.4539C30.5507 16.3732 30.8659 16.293 31.1858 16.2235C31.5058 16.1682 31.8301 16.123 32.1539 16.0811Z" fill="black"/>
</g>
<g style="mix-blend-mode:screen" opacity="0.7">
<path d="M32.5397 38.2932C32.5435 38.5799 32.5435 38.8596 32.5354 39.1426C32.5148 39.426 32.4737 39.7057 32.437 39.9887C32.3797 40.2683 32.3141 40.548 32.2403 40.8279C32.1581 41.1044 32.0516 41.3768 31.957 41.6491C31.8489 41.9219 31.7073 42.1805 31.5787 42.4464C31.4398 42.7086 31.2798 42.9602 31.1236 43.2155C30.9555 43.4635 30.7674 43.7013 30.5869 43.946C30.3901 44.1801 30.1847 44.4068 29.9799 44.6345C29.7588 44.8515 29.5248 45.0612 29.2994 45.2741C29.0535 45.4737 28.813 45.6696 28.5573 45.8617L27.7574 46.3862C27.4785 46.5435 27.1956 46.6971 26.9088 46.847L26.0191 47.242L25.0884 47.56L24.1328 47.7978C23.8869 47.8397 23.6464 47.8816 23.4032 47.9167L23.4572 47.9236L23.174 47.9517C23.1702 47.9554 23.1615 47.9554 23.1578 47.9554L23.1534 47.9236L23.1497 47.8922L23.2437 47.9028C25.7777 47.3436 28.0371 46.1112 29.6949 44.3841C31.3527 42.657 32.3227 40.5249 32.4646 38.2964V38.2928C32.5441 38.1264 32.5831 37.9479 32.5791 37.7683C32.6089 37.9437 32.5954 38.1225 32.5397 38.2932Z" fill="black"/>
</g>
</g>
<path d="M24.9535 3H8.92282C5.65174 3 3 5.65174 3 8.92282V56.0772C3 59.3483 5.65173 62 8.92282 62H24.9535" stroke="#FB640D" stroke-width="5.08749" stroke-linecap="round"/>
<defs>
<linearGradient id="paint0_linear_94_223" x1="41.5224" y1="20.8561" x2="23.5855" y2="20.8561" gradientUnits="userSpaceOnUse">
<stop stop-color="#57C6E9"/>
<stop offset="0.322" stop-color="#F36325"/>
<stop offset="1" stop-color="#57C6E9"/>
</linearGradient>
<linearGradient id="paint1_linear_94_223" x1="13.4961" y1="43.1114" x2="30.7306" y2="43.1114" gradientUnits="userSpaceOnUse">
<stop stop-color="#57C6E9"/>
<stop offset="0.322" stop-color="#FB640D"/>
<stop offset="1" stop-color="#17A1FA"/>
</linearGradient>
<linearGradient id="paint2_linear_94_223" x1="27.6198" y1="15.8243" x2="27.6198" y2="48.7837" gradientUnits="userSpaceOnUse">
<stop stop-color="#F57A09"/>
<stop offset="0.162" stop-color="#E9AF57"/>
<stop offset="0.307" stop-color="#F59709"/>
<stop offset="0.446" stop-color="#E9D257"/>
<stop offset="0.581" stop-color="#F5C109"/>
<stop offset="0.712" stop-color="#FE7F0B"/>
<stop offset="0.842" stop-color="#F93F00"/>
<stop offset="0.967" stop-color="#F81000"/>
<stop offset="1" stop-color="#F8B300"/>
</linearGradient>
</defs>
</svg>
